<?xml version="1.0" encoding="UTF-8"?>
<svg xmlns="http://www.w3.org/2000/svg" xmlns:xlink="http://www.w3.org/1999/xlink" width="384pt" height="383.999986pt" viewBox="0 0 384 383.999986" version="1.2">
<defs>
<clipPath id="clip1">
  <path d="M 144.242188 115.199219 L 287.492188 115.199219 L 287.492188 268.949219 L 144.242188 268.949219 Z M 144.242188 115.199219 "/>
</clipPath>
<clipPath id="clip2">
  <path d="M 176.421875 115.542969 L 255.152344 115.542969 L 255.152344 268.949219 L 176.421875 268.949219 Z M 176.421875 115.542969 "/>
</clipPath>
</defs>
<g id="surface1">
<path style=" stroke:none;fill-rule:nonzero;fill:rgb(47.059631%,63.529968%,82.348633%);fill-opacity:1;" d="M 285.511719 266.964844 L 251.679688 240.777344 L 255.441406 252.003906 L 165.230469 252.003906 C 154.851562 252.003906 146.4375 243.632812 146.4375 233.296875 L 146.4375 136.039062 C 146.4375 125.710938 154.851562 117.335938 165.230469 117.335938 L 266.714844 117.335938 C 277.097656 117.335938 285.511719 125.707031 285.511719 136.039062 Z M 285.511719 266.964844 "/>
<g clip-path="url(#clip1)" clip-rule="nonzero">
<path style=" stroke:none;fill-rule:nonzero;fill:rgb(0%,0%,0%);fill-opacity:1;" d="M 285.511719 269.101562 C 285.042969 269.101562 284.582031 268.949219 284.199219 268.652344 L 255.949219 246.785156 L 257.46875 251.324219 C 257.6875 251.976562 257.578125 252.695312 257.175781 253.25 C 256.773438 253.8125 256.128906 254.140625 255.441406 254.140625 L 165.230469 254.140625 C 153.6875 254.140625 144.296875 244.789062 144.296875 233.296875 L 144.296875 136.039062 C 144.296875 124.550781 153.6875 115.199219 165.230469 115.199219 L 266.71875 115.199219 C 278.257812 115.199219 287.648438 124.550781 287.648438 136.039062 L 287.648438 266.964844 C 287.648438 267.78125 287.183594 268.523438 286.453125 268.882812 C 286.152344 269.03125 285.832031 269.101562 285.511719 269.101562 Z M 251.679688 238.636719 C 252.144531 238.636719 252.605469 238.789062 252.988281 239.085938 L 283.371094 262.605469 L 283.371094 136.039062 C 283.371094 126.90625 275.898438 119.476562 266.714844 119.476562 L 165.230469 119.476562 C 156.046875 119.476562 148.574219 126.90625 148.574219 136.039062 L 148.574219 233.296875 C 148.574219 242.433594 156.046875 249.863281 165.230469 249.863281 L 252.46875 249.863281 L 249.652344 241.453125 C 249.351562 240.558594 249.671875 239.578125 250.445312 239.03125 C 250.8125 238.769531 251.246094 238.636719 251.679688 238.636719 Z M 251.679688 238.636719 "/>
</g>
<path style=" stroke:none;fill-rule:nonzero;fill:rgb(100%,100%,100%);fill-opacity:1;" d="M 234.777344 218.871094 C 234.441406 218.871094 234.125 218.710938 233.921875 218.441406 L 230.539062 213.914062 C 230.332031 213.640625 230.269531 213.289062 230.371094 212.960938 C 230.472656 212.636719 230.722656 212.375 231.042969 212.265625 C 234.757812 210.984375 238.179688 209.261719 241.277344 207.109375 C 234.28125 210.0625 225.910156 211.511719 215.972656 211.511719 C 206.035156 211.511719 197.667969 210.0625 190.667969 207.109375 C 193.765625 209.261719 197.183594 210.984375 200.902344 212.265625 C 201.226562 212.375 201.476562 212.636719 201.574219 212.960938 C 201.675781 213.289062 201.613281 213.640625 201.410156 213.914062 L 198.023438 218.441406 C 197.824219 218.710938 197.503906 218.871094 197.167969 218.871094 C 197.164062 218.871094 197.164062 218.871094 197.164062 218.871094 C 196.476562 218.867188 180.175781 218.648438 169.167969 206.0625 C 168.984375 205.847656 168.890625 205.574219 168.902344 205.296875 C 170.738281 175.191406 181.199219 159.816406 181.644531 159.175781 C 181.703125 159.085938 181.777344 159.011719 181.859375 158.945312 C 182.238281 158.648438 191.261719 151.632812 203.320312 150.476562 C 203.355469 150.476562 203.390625 150.472656 203.425781 150.472656 C 203.828125 150.472656 204.203125 150.703125 204.386719 151.070312 L 205.378906 153.097656 C 205.523438 153.390625 205.523438 153.734375 205.382812 154.03125 C 205.242188 154.324219 204.96875 154.539062 204.648438 154.609375 C 200.257812 155.582031 196.714844 157 193.722656 158.65625 C 199.746094 156.375 206.605469 154.847656 216.042969 154.847656 C 225.546875 154.847656 232.441406 156.425781 238.519531 158.765625 C 235.625 157.160156 232.09375 155.769531 227.277344 154.609375 C 226.964844 154.53125 226.699219 154.316406 226.5625 154.023438 C 226.425781 153.730469 226.425781 153.390625 226.570312 153.097656 L 227.5625 151.074219 C 227.742188 150.707031 228.117188 150.476562 228.523438 150.476562 C 228.550781 150.476562 228.578125 150.476562 228.601562 150.476562 C 240.125 151.335938 249.679688 158.632812 250.082031 158.941406 C 250.167969 159.007812 250.246094 159.085938 250.304688 159.175781 C 250.75 159.816406 261.207031 175.195312 263.042969 205.296875 C 263.0625 205.578125 262.96875 205.851562 262.78125 206.066406 C 251.769531 218.65625 235.472656 218.871094 234.785156 218.871094 C 234.78125 218.871094 234.78125 218.871094 234.777344 218.871094 Z M 234.777344 218.871094 "/>
<path style=" stroke:none;fill-rule:nonzero;fill:rgb(0%,0%,0%);fill-opacity:1;" d="M 228.523438 151.539062 C 239.855469 152.382812 249.425781 159.785156 249.425781 159.785156 C 249.425781 159.785156 260.132812 175.210938 261.972656 205.359375 C 251.15625 217.730469 234.777344 217.800781 234.777344 217.800781 L 231.394531 213.273438 C 237.171875 211.285156 243.757812 207.714844 249.425781 201.234375 C 242.652344 206.316406 232.460938 210.441406 215.972656 210.441406 C 199.484375 210.441406 189.292969 206.316406 182.519531 201.234375 C 188.1875 207.714844 194.777344 211.285156 200.554688 213.273438 L 197.167969 217.800781 C 197.167969 217.800781 180.792969 217.730469 169.972656 205.359375 C 171.8125 175.210938 182.519531 159.785156 182.519531 159.785156 C 182.519531 159.785156 191.535156 152.679688 203.425781 151.539062 L 204.417969 153.5625 C 195.105469 155.621094 189.511719 159.597656 184.617188 163.980469 C 193.046875 159.671875 201.464844 155.910156 216.039062 155.910156 C 230.613281 155.910156 238.898438 159.671875 247.328125 163.980469 C 242.429688 159.601562 237.757812 156.027344 227.527344 153.5625 L 228.523438 151.539062 M 203.425781 149.402344 C 203.355469 149.402344 203.289062 149.40625 203.21875 149.410156 C 190.847656 150.601562 181.582031 157.800781 181.195312 158.105469 C 181.027344 158.238281 180.882812 158.394531 180.765625 158.566406 C 180.3125 159.214844 169.691406 174.832031 167.835938 205.230469 C 167.800781 205.789062 167.992188 206.34375 168.359375 206.765625 C 179.683594 219.710938 196.449219 219.9375 197.15625 219.9375 C 197.160156 219.9375 197.164062 219.9375 197.167969 219.9375 C 197.84375 219.9375 198.476562 219.621094 198.882812 219.078125 L 202.265625 214.550781 C 202.675781 214.003906 202.800781 213.296875 202.597656 212.644531 C 202.429688 212.097656 202.046875 211.644531 201.550781 211.378906 C 205.953125 212.179688 210.753906 212.574219 215.972656 212.574219 C 221.195312 212.574219 225.992188 212.179688 230.394531 211.378906 C 229.894531 211.644531 229.515625 212.097656 229.347656 212.644531 C 229.148438 213.296875 229.269531 214.003906 229.679688 214.550781 L 233.0625 219.078125 C 233.46875 219.621094 234.105469 219.9375 234.777344 219.9375 C 234.78125 219.9375 234.785156 219.9375 234.789062 219.9375 C 235.496094 219.9375 252.261719 219.710938 263.585938 206.765625 C 263.957031 206.34375 264.144531 205.789062 264.109375 205.230469 C 262.253906 174.832031 251.632812 159.214844 251.183594 158.566406 C 251.058594 158.386719 250.90625 158.230469 250.734375 158.09375 C 250.320312 157.777344 240.519531 150.292969 228.679688 149.40625 C 228.628906 149.402344 228.574219 149.402344 228.523438 149.402344 C 227.710938 149.402344 226.960938 149.859375 226.601562 150.597656 L 225.609375 152.621094 C 225.339844 153.167969 225.320312 153.800781 225.542969 154.359375 C 222.664062 153.980469 219.523438 153.773438 216.039062 153.773438 C 212.5 153.773438 209.316406 153.984375 206.398438 154.367188 C 206.628906 153.804688 206.609375 153.171875 206.339844 152.621094 L 205.34375 150.597656 C 204.984375 149.859375 204.234375 149.402344 203.425781 149.402344 Z M 203.425781 149.402344 "/>
<path style=" stroke:none;fill-rule:nonzero;fill:rgb(47.059631%,63.529968%,82.348633%);fill-opacity:1;" d="M 237.367188 187.875 C 237.367188 188.507812 237.320312 189.132812 237.226562 189.753906 C 237.128906 190.371094 236.988281 190.972656 236.800781 191.558594 C 236.609375 192.140625 236.378906 192.695312 236.105469 193.21875 C 235.832031 193.746094 235.523438 194.230469 235.175781 194.679688 C 234.828125 195.125 234.449219 195.523438 234.039062 195.875 C 233.632812 196.226562 233.199219 196.519531 232.746094 196.761719 C 232.292969 197.003906 231.824219 197.1875 231.339844 197.308594 C 230.859375 197.433594 230.371094 197.496094 229.878906 197.496094 C 229.386719 197.496094 228.902344 197.433594 228.417969 197.308594 C 227.9375 197.1875 227.46875 197.003906 227.015625 196.761719 C 226.558594 196.519531 226.128906 196.226562 225.71875 195.875 C 225.3125 195.523438 224.933594 195.125 224.585938 194.679688 C 224.238281 194.230469 223.925781 193.746094 223.652344 193.21875 C 223.378906 192.695312 223.148438 192.140625 222.960938 191.558594 C 222.773438 190.972656 222.632812 190.371094 222.535156 189.753906 C 222.441406 189.132812 222.390625 188.507812 222.390625 187.875 C 222.390625 187.246094 222.441406 186.617188 222.535156 186 C 222.632812 185.378906 222.773438 184.777344 222.960938 184.195312 C 223.148438 183.613281 223.378906 183.058594 223.652344 182.53125 C 223.925781 182.007812 224.238281 181.519531 224.585938 181.074219 C 224.933594 180.628906 225.3125 180.230469 225.71875 179.878906 C 226.128906 179.527344 226.558594 179.230469 227.015625 178.988281 C 227.46875 178.746094 227.9375 178.566406 228.417969 178.441406 C 228.902344 178.320312 229.386719 178.257812 229.878906 178.257812 C 230.371094 178.257812 230.859375 178.320312 231.339844 178.441406 C 231.824219 178.566406 232.292969 178.746094 232.746094 178.988281 C 233.199219 179.230469 233.632812 179.527344 234.039062 179.878906 C 234.449219 180.230469 234.828125 180.628906 235.175781 181.074219 C 235.523438 181.519531 235.832031 182.007812 236.105469 182.53125 C 236.378906 183.058594 236.609375 183.613281 236.800781 184.195312 C 236.988281 184.777344 237.128906 185.378906 237.226562 186 C 237.320312 186.617188 237.367188 187.246094 237.367188 187.875 Z M 237.367188 187.875 "/>
<path style=" stroke:none;fill-rule:nonzero;fill:rgb(0%,0%,0%);fill-opacity:1;" d="M 229.878906 179.324219 C 233.410156 179.324219 236.300781 183.15625 236.300781 187.875 C 236.300781 192.597656 233.410156 196.425781 229.878906 196.425781 C 226.351562 196.425781 223.460938 192.597656 223.460938 187.875 C 223.460938 183.15625 226.351562 179.324219 229.878906 179.324219 M 229.878906 177.1875 C 225.160156 177.1875 221.320312 181.984375 221.320312 187.875 C 221.320312 193.769531 225.160156 198.5625 229.878906 198.5625 C 234.601562 198.5625 238.4375 193.769531 238.4375 187.875 C 238.4375 181.984375 234.601562 177.1875 229.878906 177.1875 Z M 229.878906 177.1875 "/>
<path style=" stroke:none;fill-rule:nonzero;fill:rgb(47.059631%,63.529968%,82.348633%);fill-opacity:1;" d="M 209.554688 187.875 C 209.554688 188.507812 209.507812 189.132812 209.410156 189.753906 C 209.3125 190.371094 209.171875 190.972656 208.984375 191.558594 C 208.796875 192.140625 208.566406 192.695312 208.292969 193.21875 C 208.019531 193.746094 207.707031 194.230469 207.359375 194.679688 C 207.011719 195.125 206.636719 195.523438 206.226562 195.875 C 205.816406 196.226562 205.386719 196.519531 204.929688 196.761719 C 204.476562 197.003906 204.007812 197.1875 203.527344 197.308594 C 203.042969 197.433594 202.558594 197.496094 202.066406 197.496094 C 201.574219 197.496094 201.085938 197.433594 200.605469 197.308594 C 200.121094 197.1875 199.652344 197.003906 199.199219 196.761719 C 198.746094 196.519531 198.3125 196.226562 197.90625 195.875 C 197.496094 195.523438 197.117188 195.125 196.769531 194.679688 C 196.421875 194.230469 196.113281 193.746094 195.839844 193.21875 C 195.566406 192.695312 195.335938 192.140625 195.148438 191.558594 C 194.957031 190.972656 194.816406 190.371094 194.722656 189.753906 C 194.625 189.132812 194.578125 188.507812 194.578125 187.875 C 194.578125 187.246094 194.625 186.617188 194.722656 186 C 194.816406 185.378906 194.957031 184.777344 195.148438 184.195312 C 195.335938 183.613281 195.566406 183.058594 195.839844 182.53125 C 196.113281 182.007812 196.421875 181.519531 196.769531 181.074219 C 197.117188 180.628906 197.496094 180.230469 197.90625 179.878906 C 198.3125 179.527344 198.746094 179.230469 199.199219 178.988281 C 199.652344 178.746094 200.121094 178.566406 200.605469 178.441406 C 201.085938 178.320312 201.574219 178.257812 202.066406 178.257812 C 202.558594 178.257812 203.042969 178.320312 203.527344 178.441406 C 204.007812 178.566406 204.476562 178.746094 204.929688 178.988281 C 205.386719 179.230469 205.816406 179.527344 206.226562 179.878906 C 206.636719 180.230469 207.011719 180.628906 207.359375 181.074219 C 207.707031 181.519531 208.019531 182.007812 208.292969 182.53125 C 208.566406 183.058594 208.796875 183.613281 208.984375 184.195312 C 209.171875 184.777344 209.3125 185.378906 209.410156 186 C 209.507812 186.617188 209.554688 187.246094 209.554688 187.875 Z M 209.554688 187.875 "/>
<path style=" stroke:none;fill-rule:nonzero;fill:rgb(0%,0%,0%);fill-opacity:1;" d="M 202.066406 179.324219 C 205.597656 179.324219 208.484375 183.15625 208.484375 187.875 C 208.484375 192.597656 205.597656 196.425781 202.066406 196.425781 C 198.535156 196.425781 195.648438 192.597656 195.648438 187.875 C 195.648438 183.15625 198.535156 179.324219 202.066406 179.324219 M 202.066406 177.1875 C 197.34375 177.1875 193.507812 181.984375 193.507812 187.875 C 193.507812 193.769531 197.34375 198.5625 202.066406 198.5625 C 206.785156 198.5625 210.625 193.769531 210.625 187.875 C 210.625 181.984375 206.785156 177.1875 202.066406 177.1875 Z M 202.066406 177.1875 "/>
<path style=" stroke:none;fill-rule:nonzero;fill:rgb(0%,0%,0%);fill-opacity:1;" d="M 275.882812 175.703125 C 275.292969 175.703125 274.8125 175.222656 274.8125 174.632812 L 274.8125 162.898438 C 274.8125 162.308594 275.292969 161.832031 275.882812 161.832031 C 276.472656 161.832031 276.953125 162.308594 276.953125 162.898438 L 276.953125 174.632812 C 276.953125 175.222656 276.472656 175.703125 275.882812 175.703125 Z M 275.882812 175.703125 "/>
<path style=" stroke:none;fill-rule:nonzero;fill:rgb(0%,0%,0%);fill-opacity:1;" d="M 275.882812 157.421875 C 275.292969 157.421875 274.8125 156.941406 274.8125 156.351562 L 274.8125 146.800781 C 274.8125 146.210938 275.292969 145.734375 275.882812 145.734375 C 276.472656 145.734375 276.953125 146.210938 276.953125 146.800781 L 276.953125 156.351562 C 276.953125 156.941406 276.472656 157.421875 275.882812 157.421875 Z M 275.882812 157.421875 "/>
<path style=" stroke:none;fill-rule:nonzero;fill:rgb(0%,0%,0%);fill-opacity:1;" d="M 167.101562 243.453125 C 160.425781 243.453125 154.996094 238.027344 154.996094 231.359375 L 154.996094 137.980469 C 154.996094 131.3125 160.425781 125.886719 167.101562 125.886719 L 264.847656 125.886719 C 265.4375 125.886719 265.917969 126.367188 265.917969 126.957031 C 265.917969 127.546875 265.4375 128.023438 264.847656 128.023438 L 167.101562 128.023438 C 161.605469 128.023438 157.132812 132.492188 157.132812 137.980469 L 157.132812 231.359375 C 157.132812 236.847656 161.605469 241.316406 167.101562 241.316406 C 167.691406 241.316406 168.171875 241.792969 168.171875 242.382812 C 168.171875 242.972656 167.691406 243.453125 167.101562 243.453125 Z M 167.101562 243.453125 "/>
<path style=" stroke:none;fill-rule:nonzero;fill:rgb(0%,0%,0%);fill-opacity:1;" d="M 189.363281 243.453125 L 174 243.453125 C 173.410156 243.453125 172.929688 242.972656 172.929688 242.382812 C 172.929688 241.792969 173.410156 241.316406 174 241.316406 L 189.363281 241.316406 C 189.957031 241.316406 190.433594 241.792969 190.433594 242.382812 C 190.433594 242.972656 189.957031 243.453125 189.363281 243.453125 Z M 189.363281 243.453125 "/>
<path style=" stroke:none;fill-rule:nonzero;fill:rgb(0%,0%,0%);fill-opacity:1;" d="M 240.308594 243.453125 L 198.585938 243.453125 C 197.992188 243.453125 197.515625 242.972656 197.515625 242.382812 C 197.515625 241.792969 197.992188 241.316406 198.585938 241.316406 L 240.308594 241.316406 C 240.898438 241.316406 241.375 241.792969 241.375 242.382812 C 241.375 242.972656 240.898438 243.453125 240.308594 243.453125 Z M 240.308594 243.453125 "/>
<path style=" stroke:none;fill-rule:nonzero;fill:rgb(0%,0%,0%);fill-opacity:1;" d="M 271.8125 240.976562 C 271.503906 240.976562 271.195312 240.84375 270.984375 240.582031 C 270.613281 240.125 270.679688 239.453125 271.136719 239.078125 C 273.472656 237.179688 274.8125 234.363281 274.8125 231.359375 L 274.8125 183.367188 C 274.8125 182.777344 275.292969 182.296875 275.882812 182.296875 C 276.472656 182.296875 276.953125 182.777344 276.953125 183.367188 L 276.953125 231.359375 C 276.953125 235.007812 275.324219 238.429688 272.492188 240.738281 C 272.292969 240.898438 272.050781 240.976562 271.8125 240.976562 Z M 271.8125 240.976562 "/>
<g clip-path="url(#clip2)" clip-rule="nonzero">
<path style=" stroke:none;fill-rule:evenodd;fill:rgb(0%,0%,0%);fill-opacity:1;" d="M 196.574219 263.179688 C 209.164062 266.03125 220.1875 266.296875 230.320312 264.226562 C 233.597656 263.558594 240.859375 259.808594 239.996094 255.847656 C 239.726562 254.609375 237.894531 254.042969 237.382812 252.96875 C 226.046875 263.113281 198.597656 261.773438 187.15625 253.488281 C 182.074219 260.34375 190.84375 261.882812 196.574219 263.179688 Z M 186.894531 233.589844 C 186.476562 238.402344 185.476562 244.554688 186.109375 247.992188 C 187.429688 255.125 200.980469 258.511719 210.4375 258.726562 C 221.195312 258.972656 231.164062 257.027344 236.859375 251.394531 C 240.195312 243.746094 239.714844 231.449219 237.382812 221.539062 C 235.066406 211.710938 229.488281 205.488281 219.332031 206.617188 C 217.8125 213.359375 207.640625 210.097656 202.328125 209.757812 C 201.484375 209.382812 201.71875 207.925781 201.28125 207.136719 C 190.257812 209.597656 187.960938 221.375 186.894531 233.589844 Z M 204.421875 204.519531 C 203.976562 205.652344 202.664062 206.695312 203.375 208.1875 C 206.589844 208.769531 211.613281 209.234375 216.191406 208.710938 C 219.632812 201.785156 208.847656 204.210938 204.421875 204.519531 Z M 218.285156 187.496094 C 222.773438 185.242188 228.128906 186.507812 233.457031 184.878906 C 235.34375 184.304688 237.945312 182.863281 239.476562 181.738281 C 251.796875 172.660156 254.796875 153.777344 248.628906 139.574219 C 242.351562 125.109375 225.214844 115.199219 205.46875 119.148438 C 197.210938 122.902344 186.269531 129.34375 181.925781 138.265625 C 180.203125 141.800781 178.703125 146.601562 179.308594 150.835938 C 179.90625 155.003906 182.851562 157.667969 183.496094 162.359375 C 185.707031 159.34375 183.75 157.046875 183.496094 154.238281 C 183.402344 153.207031 183.566406 151.769531 183.757812 150.835938 C 186.1875 138.792969 198.367188 127.90625 212.269531 127.789062 C 221.613281 127.710938 233.078125 132.972656 238.167969 138.003906 C 243.808594 143.582031 245.601562 151.890625 244.707031 162.617188 C 243.707031 174.597656 235.46875 181.660156 225.085938 184.355469 C 219.421875 185.824219 210.070312 184.71875 207.824219 190.117188 C 206.980469 192.136719 207.597656 194.441406 207.5625 195.878906 C 207.519531 197.597656 207.183594 199.65625 207.300781 202.425781 C 208.660156 202.410156 210.871094 202.328125 212.53125 201.902344 C 211.847656 195.429688 213.746094 189.78125 218.285156 187.496094 Z M 239.996094 250.609375 C 242.175781 252.527344 244.328125 256.003906 242.875 259.773438 C 241.792969 262.582031 233.96875 265.769531 231.105469 266.847656 C 229.949219 267.28125 228.386719 267.5625 226.917969 267.894531 C 218.363281 269.816406 205.058594 269.292969 196.835938 267.371094 C 192.796875 265.128906 187.226562 264.417969 183.757812 261.609375 C 182.1875 258.875 182.628906 254.460938 184.539062 252.445312 C 182.277344 246.152344 183.300781 238.382812 184.28125 229.921875 C 185.566406 218.808594 188.578125 206.800781 200.496094 204.78125 C 201.625 203.730469 202.34375 202.265625 203.898438 201.640625 C 203.609375 192.5 204.441406 185.246094 212.53125 183.308594 C 216.511719 182.355469 220.433594 182.695312 224.039062 181.738281 C 229.867188 180.191406 235.558594 176.546875 238.429688 171.785156 C 241.488281 165.335938 242.957031 155.007812 240.785156 146.90625 C 238.570312 138.675781 225.824219 132.808594 216.976562 130.933594 C 210.625 129.585938 201.578125 132.386719 197.359375 135.382812 C 193.644531 138.019531 187.664062 144.671875 186.894531 150.574219 C 186.480469 153.746094 187.769531 157.941406 186.894531 161.308594 C 186.40625 163.195312 185.125 163.957031 184.800781 165.761719 C 182.976562 166.410156 182.027344 169.230469 179.570312 168.382812 C 179.023438 165.535156 180.613281 165.695312 180.617188 163.40625 C 180.621094 160.054688 177.382812 155.730469 176.691406 152.144531 C 176.167969 149.414062 176.4375 145.730469 177.214844 142.714844 C 180.695312 129.300781 196.699219 116.539062 211.222656 115.742188 C 215.535156 115.507812 221.890625 115.222656 226.917969 116.53125 C 227.929688 116.792969 229.175781 117.820312 230.320312 118.363281 C 231.535156 118.941406 232.929688 119.15625 233.980469 119.671875 C 245.875 125.476562 254.984375 139.339844 255.167969 155.285156 C 255.28125 164.792969 250.890625 174.542969 246.015625 179.640625 C 241.425781 184.441406 235.488281 186.8125 227.703125 188.28125 C 225.230469 188.75 222.285156 188.644531 219.855469 189.59375 C 216.53125 190.890625 215.152344 194.398438 215.410156 199.804688 C 218.054688 204.34375 221.914062 203.101562 226.65625 204.257812 C 238.910156 207.238281 241.820312 222.246094 242.089844 238.039062 C 242.164062 242.363281 241.367188 247.105469 239.996094 250.609375 "/>
</g>
<path style=" stroke:none;fill-rule:evenodd;fill:rgb(89.7995%,89.7995%,87.449646%);fill-opacity:1;" d="M 209.128906 193.78125 C 208.039062 194.769531 209.601562 196.273438 210.960938 196.402344 C 211.628906 195.1875 210.574219 193.726562 209.128906 193.78125 Z M 209.914062 192.210938 C 210.167969 192.660156 210.738281 192.785156 211.222656 192.996094 C 211.253906 192.679688 211.300781 192.378906 211.746094 192.472656 C 211.851562 191.125 209.921875 190.691406 209.914062 192.210938 Z M 225.085938 127.265625 C 225.453125 128.246094 228.046875 127.855469 227.964844 126.742188 C 227.742188 126.15625 225.113281 126.105469 225.085938 127.265625 Z M 199.972656 128.835938 C 201.058594 127.855469 199.871094 125.980469 198.929688 125.433594 C 198.011719 126.527344 198.304688 128.488281 199.972656 128.835938 Z M 200.761719 124.648438 C 201.164062 125.554688 201.828125 126.195312 202.851562 126.480469 C 203.234375 124.820312 201.386719 122.910156 200.761719 124.648438 Z M 221.425781 125.433594 C 222.515625 125.925781 223.890625 125.34375 224.304688 124.386719 C 223.871094 122.984375 221.046875 123.679688 221.425781 125.433594 Z M 212.53125 201.902344 C 210.871094 202.328125 208.660156 202.410156 207.300781 202.425781 C 207.183594 199.65625 207.519531 197.597656 207.5625 195.878906 C 207.597656 194.441406 206.980469 192.136719 207.824219 190.117188 C 210.070312 184.71875 219.421875 185.824219 225.085938 184.355469 C 235.46875 181.660156 243.707031 174.597656 244.707031 162.617188 C 245.601562 151.890625 243.808594 143.582031 238.167969 138.003906 C 233.078125 132.972656 221.613281 127.710938 212.269531 127.789062 C 198.367188 127.90625 186.1875 138.792969 183.757812 150.835938 C 183.566406 151.769531 183.402344 153.207031 183.496094 154.238281 C 183.75 157.046875 185.707031 159.34375 183.496094 162.359375 C 182.851562 157.667969 179.90625 155.003906 179.308594 150.835938 C 178.703125 146.601562 180.203125 141.800781 181.925781 138.265625 C 186.269531 129.34375 197.210938 122.902344 205.46875 119.148438 C 225.214844 115.199219 242.351562 125.109375 248.628906 139.574219 C 254.796875 153.777344 251.796875 172.660156 239.476562 181.738281 C 237.945312 182.863281 235.34375 184.304688 233.457031 184.878906 C 228.128906 186.507812 222.773438 185.242188 218.285156 187.496094 C 213.746094 189.78125 211.847656 195.429688 212.53125 201.902344 "/>
<path style=" stroke:none;fill-rule:evenodd;fill:rgb(0%,0%,0%);fill-opacity:1;" d="M 224.304688 124.386719 C 223.890625 125.34375 222.515625 125.925781 221.425781 125.433594 C 221.046875 123.679688 223.871094 122.984375 224.304688 124.386719 "/>
<path style=" stroke:none;fill-rule:evenodd;fill:rgb(0%,0%,0%);fill-opacity:1;" d="M 202.851562 126.480469 C 201.828125 126.195312 201.164062 125.554688 200.761719 124.648438 C 201.386719 122.910156 203.234375 124.824219 202.851562 126.480469 "/>
<path style=" stroke:none;fill-rule:evenodd;fill:rgb(0%,0%,0%);fill-opacity:1;" d="M 198.929688 125.433594 C 199.867188 125.980469 201.058594 127.855469 199.972656 128.835938 C 198.304688 128.488281 198.011719 126.527344 198.929688 125.433594 "/>
<path style=" stroke:none;fill-rule:evenodd;fill:rgb(0%,0%,0%);fill-opacity:1;" d="M 227.964844 126.742188 C 228.046875 127.855469 225.453125 128.246094 225.085938 127.265625 C 225.113281 126.105469 227.742188 126.15625 227.964844 126.742188 "/>
<path style=" stroke:none;fill-rule:evenodd;fill:rgb(0%,0%,0%);fill-opacity:1;" d="M 211.746094 192.472656 C 211.300781 192.378906 211.253906 192.679688 211.222656 192.996094 C 210.738281 192.785156 210.167969 192.660156 209.914062 192.210938 C 209.921875 190.691406 211.851562 191.125 211.746094 192.472656 "/>
<path style=" stroke:none;fill-rule:evenodd;fill:rgb(0%,0%,0%);fill-opacity:1;" d="M 210.960938 196.402344 C 209.601562 196.273438 208.039062 194.769531 209.128906 193.78125 C 210.574219 193.726562 211.628906 195.1875 210.960938 196.402344 "/>
<path style=" stroke:none;fill-rule:evenodd;fill:rgb(62.348938%,67.83905%,67.449951%);fill-opacity:1;" d="M 216.191406 208.710938 C 211.613281 209.234375 206.589844 208.769531 203.375 208.1875 C 202.664062 206.695312 203.976562 205.652344 204.421875 204.519531 C 208.847656 204.210938 219.632812 201.785156 216.191406 208.710938 "/>
<path style=" stroke:none;fill-rule:evenodd;fill:rgb(48.239136%,48.629761%,43.139648%);fill-opacity:1;" d="M 229.535156 246.945312 C 229.316406 248.890625 231.84375 248.265625 231.628906 246.683594 C 231.019531 246.105469 230.140625 246.734375 229.535156 246.945312 Z M 226.65625 245.632812 C 228.386719 245.304688 228.519531 244.410156 229.011719 243.277344 C 228.039062 242.0625 225.832031 244.277344 226.65625 245.632812 Z M 196.3125 223.636719 C 196.515625 223.695312 196.828125 223.644531 196.835938 223.898438 C 197.652344 223.320312 198.359375 222.628906 198.40625 221.28125 C 198.070312 221.265625 198.042969 220.945312 197.621094 221.015625 C 197.027344 221.734375 196.199219 222.214844 196.3125 223.636719 Z M 194.21875 218.925781 C 195.050781 219.777344 192.539062 220.589844 193.695312 221.804688 C 195.519531 221.53125 195.925781 219.847656 196.3125 218.136719 C 195.128906 217.914062 194.851562 218.597656 194.21875 218.925781 Z M 201.28125 207.140625 C 201.71875 207.925781 201.484375 209.382812 202.328125 209.757812 C 207.640625 210.097656 217.8125 213.359375 219.332031 206.617188 C 229.488281 205.488281 235.066406 211.710938 237.382812 221.539062 C 239.714844 231.449219 240.195312 243.746094 236.859375 251.394531 C 231.164062 257.027344 221.195312 258.972656 210.4375 258.726562 C 200.980469 258.511719 187.429688 255.125 186.109375 247.992188 C 185.476562 244.554688 186.476562 238.402344 186.894531 233.589844 C 187.960938 221.375 190.257812 209.597656 201.28125 207.140625 "/>
<path style=" stroke:none;fill-rule:evenodd;fill:rgb(0%,0%,0%);fill-opacity:1;" d="M 196.3125 218.136719 C 195.925781 219.847656 195.519531 221.53125 193.695312 221.804688 C 192.539062 220.589844 195.050781 219.777344 194.21875 218.925781 C 194.851562 218.597656 195.128906 217.914062 196.3125 218.136719 "/>
<path style=" stroke:none;fill-rule:evenodd;fill:rgb(0%,0%,0%);fill-opacity:1;" d="M 197.621094 221.015625 C 198.042969 220.945312 198.070312 221.265625 198.40625 221.28125 C 198.359375 222.628906 197.652344 223.320312 196.835938 223.898438 C 196.828125 223.644531 196.515625 223.695312 196.3125 223.636719 C 196.199219 222.214844 197.027344 221.734375 197.621094 221.015625 "/>
<path style=" stroke:none;fill-rule:evenodd;fill:rgb(0%,0%,0%);fill-opacity:1;" d="M 229.011719 243.277344 C 228.519531 244.410156 228.386719 245.304688 226.65625 245.632812 C 225.832031 244.277344 228.039062 242.0625 229.011719 243.277344 "/>
<path style=" stroke:none;fill-rule:evenodd;fill:rgb(0%,0%,0%);fill-opacity:1;" d="M 231.628906 246.683594 C 231.84375 248.265625 229.316406 248.890625 229.535156 246.945312 C 230.140625 246.734375 231.019531 246.105469 231.628906 246.683594 "/>
<path style=" stroke:none;fill-rule:evenodd;fill:rgb(62.348938%,67.83905%,67.449951%);fill-opacity:1;" d="M 187.15625 253.492188 C 198.597656 261.773438 226.046875 263.113281 237.382812 252.96875 C 237.894531 254.042969 239.726562 254.609375 239.996094 255.847656 C 240.859375 259.808594 233.597656 263.558594 230.320312 264.226562 C 220.1875 266.296875 209.164062 266.03125 196.574219 263.179688 C 190.84375 261.882812 182.074219 260.34375 187.15625 253.492188 "/>
</g>
</svg>
