<?xml version="1.0" encoding="UTF-8"?>
<svg xmlns="http://www.w3.org/2000/svg" xmlns:xlink="http://www.w3.org/1999/xlink" width="384pt" height="383.999986pt" viewBox="0 0 384 383.999986" version="1.2">
<defs>
<clipPath id="clip1">
  <path d="M 115.675781 0 L 384 0 L 384 287.871094 L 115.675781 287.871094 Z M 115.675781 0 "/>
</clipPath>
<clipPath id="clip2">
  <path d="M 13 92 L 257 92 L 257 300 L 13 300 Z M 13 92 "/>
</clipPath>
<clipPath id="clip3">
  <path d="M -11.46875 180.050781 L 58.5625 67.273438 L 279.015625 204.171875 L 208.984375 316.945312 Z M -11.46875 180.050781 "/>
</clipPath>
<clipPath id="clip4">
  <path d="M -11.46875 180.050781 L 58.5625 67.273438 L 279.015625 204.171875 L 208.984375 316.945312 Z M -11.46875 180.050781 "/>
</clipPath>
<clipPath id="clip5">
  <path d="M -11.46875 180.050781 L 58.515625 67.355469 L 279.207031 204.398438 L 209.226562 317.09375 Z M -11.46875 180.050781 "/>
</clipPath>
<clipPath id="clip6">
  <path d="M -10.960938 180.328125 L 58.996094 67.671875 L 279.277344 204.460938 L 209.320312 317.117188 Z M -10.960938 180.328125 "/>
</clipPath>
<clipPath id="clip7">
  <path d="M -10.960938 180.328125 L 58.992188 67.683594 L 279.1875 204.421875 L 209.238281 317.066406 Z M -10.960938 180.328125 "/>
</clipPath>
<clipPath id="clip8">
  <path d="M 18 97 L 145 97 L 145 214 L 18 214 Z M 18 97 "/>
</clipPath>
<clipPath id="clip9">
  <path d="M -11.46875 180.050781 L 58.5625 67.273438 L 279.015625 204.171875 L 208.984375 316.945312 Z M -11.46875 180.050781 "/>
</clipPath>
<clipPath id="clip10">
  <path d="M -11.46875 180.050781 L 58.5625 67.273438 L 279.015625 204.171875 L 208.984375 316.945312 Z M -11.46875 180.050781 "/>
</clipPath>
<clipPath id="clip11">
  <path d="M -11.46875 180.050781 L 58.515625 67.355469 L 279.207031 204.398438 L 209.226562 317.09375 Z M -11.46875 180.050781 "/>
</clipPath>
<clipPath id="clip12">
  <path d="M 41 119 L 45 119 L 45 125 L 41 125 Z M 41 119 "/>
</clipPath>
<clipPath id="clip13">
  <path d="M -11.46875 180.050781 L 58.5625 67.273438 L 279.015625 204.171875 L 208.984375 316.945312 Z M -11.46875 180.050781 "/>
</clipPath>
<clipPath id="clip14">
  <path d="M -11.46875 180.050781 L 58.5625 67.273438 L 279.015625 204.171875 L 208.984375 316.945312 Z M -11.46875 180.050781 "/>
</clipPath>
<clipPath id="clip15">
  <path d="M -11.46875 180.050781 L 58.515625 67.355469 L 279.207031 204.398438 L 209.226562 317.09375 Z M -11.46875 180.050781 "/>
</clipPath>
<clipPath id="clip16">
  <path d="M 23 151 L 29 151 L 29 154 L 23 154 Z M 23 151 "/>
</clipPath>
<clipPath id="clip17">
  <path d="M -11.46875 180.050781 L 58.5625 67.273438 L 279.015625 204.171875 L 208.984375 316.945312 Z M -11.46875 180.050781 "/>
</clipPath>
<clipPath id="clip18">
  <path d="M -11.46875 180.050781 L 58.5625 67.273438 L 279.015625 204.171875 L 208.984375 316.945312 Z M -11.46875 180.050781 "/>
</clipPath>
<clipPath id="clip19">
  <path d="M -11.46875 180.050781 L 58.515625 67.355469 L 279.207031 204.398438 L 209.226562 317.09375 Z M -11.46875 180.050781 "/>
</clipPath>
<clipPath id="clip20">
  <path d="M 23 156 L 30 156 L 30 160 L 23 160 Z M 23 156 "/>
</clipPath>
<clipPath id="clip21">
  <path d="M -11.46875 180.050781 L 58.5625 67.273438 L 279.015625 204.171875 L 208.984375 316.945312 Z M -11.46875 180.050781 "/>
</clipPath>
<clipPath id="clip22">
  <path d="M -11.46875 180.050781 L 58.5625 67.273438 L 279.015625 204.171875 L 208.984375 316.945312 Z M -11.46875 180.050781 "/>
</clipPath>
<clipPath id="clip23">
  <path d="M -11.46875 180.050781 L 58.515625 67.355469 L 279.207031 204.398438 L 209.226562 317.09375 Z M -11.46875 180.050781 "/>
</clipPath>
<clipPath id="clip24">
  <path d="M 48 116 L 52 116 L 52 122 L 48 122 Z M 48 116 "/>
</clipPath>
<clipPath id="clip25">
  <path d="M -11.46875 180.050781 L 58.5625 67.273438 L 279.015625 204.171875 L 208.984375 316.945312 Z M -11.46875 180.050781 "/>
</clipPath>
<clipPath id="clip26">
  <path d="M -11.46875 180.050781 L 58.5625 67.273438 L 279.015625 204.171875 L 208.984375 316.945312 Z M -11.46875 180.050781 "/>
</clipPath>
<clipPath id="clip27">
  <path d="M -11.46875 180.050781 L 58.515625 67.355469 L 279.207031 204.398438 L 209.226562 317.09375 Z M -11.46875 180.050781 "/>
</clipPath>
<clipPath id="clip28">
  <path d="M 127 197 L 132 197 L 132 201 L 127 201 Z M 127 197 "/>
</clipPath>
<clipPath id="clip29">
  <path d="M -11.46875 180.050781 L 58.5625 67.273438 L 279.015625 204.171875 L 208.984375 316.945312 Z M -11.46875 180.050781 "/>
</clipPath>
<clipPath id="clip30">
  <path d="M -11.46875 180.050781 L 58.5625 67.273438 L 279.015625 204.171875 L 208.984375 316.945312 Z M -11.46875 180.050781 "/>
</clipPath>
<clipPath id="clip31">
  <path d="M -11.46875 180.050781 L 58.515625 67.355469 L 279.207031 204.398438 L 209.226562 317.09375 Z M -11.46875 180.050781 "/>
</clipPath>
<clipPath id="clip32">
  <path d="M 130 201 L 136 201 L 136 205 L 130 205 Z M 130 201 "/>
</clipPath>
<clipPath id="clip33">
  <path d="M -11.46875 180.050781 L 58.5625 67.273438 L 279.015625 204.171875 L 208.984375 316.945312 Z M -11.46875 180.050781 "/>
</clipPath>
<clipPath id="clip34">
  <path d="M -11.46875 180.050781 L 58.5625 67.273438 L 279.015625 204.171875 L 208.984375 316.945312 Z M -11.46875 180.050781 "/>
</clipPath>
<clipPath id="clip35">
  <path d="M -11.46875 180.050781 L 58.515625 67.355469 L 279.207031 204.398438 L 209.226562 317.09375 Z M -11.46875 180.050781 "/>
</clipPath>
<clipPath id="clip36">
  <path d="M 141 202 L 158 202 L 158 225 L 141 225 Z M 141 202 "/>
</clipPath>
<clipPath id="clip37">
  <path d="M -11.46875 180.050781 L 58.5625 67.273438 L 279.015625 204.171875 L 208.984375 316.945312 Z M -11.46875 180.050781 "/>
</clipPath>
<clipPath id="clip38">
  <path d="M -11.46875 180.050781 L 58.5625 67.273438 L 279.015625 204.171875 L 208.984375 316.945312 Z M -11.46875 180.050781 "/>
</clipPath>
<clipPath id="clip39">
  <path d="M -11.46875 180.050781 L 58.515625 67.355469 L 279.207031 204.398438 L 209.226562 317.09375 Z M -11.46875 180.050781 "/>
</clipPath>
<clipPath id="clip40">
  <path d="M 141 184 L 239 184 L 239 286 L 141 286 Z M 141 184 "/>
</clipPath>
<clipPath id="clip41">
  <path d="M -11.46875 180.050781 L 58.5625 67.273438 L 279.015625 204.171875 L 208.984375 316.945312 Z M -11.46875 180.050781 "/>
</clipPath>
<clipPath id="clip42">
  <path d="M -11.46875 180.050781 L 58.5625 67.273438 L 279.015625 204.171875 L 208.984375 316.945312 Z M -11.46875 180.050781 "/>
</clipPath>
<clipPath id="clip43">
  <path d="M -11.46875 180.050781 L 58.515625 67.355469 L 279.207031 204.398438 L 209.226562 317.09375 Z M -11.46875 180.050781 "/>
</clipPath>
<clipPath id="clip44">
  <path d="M 152 243 L 158 243 L 158 251 L 152 251 Z M 152 243 "/>
</clipPath>
<clipPath id="clip45">
  <path d="M -11.46875 180.050781 L 58.5625 67.273438 L 279.015625 204.171875 L 208.984375 316.945312 Z M -11.46875 180.050781 "/>
</clipPath>
<clipPath id="clip46">
  <path d="M -11.46875 180.050781 L 58.5625 67.273438 L 279.015625 204.171875 L 208.984375 316.945312 Z M -11.46875 180.050781 "/>
</clipPath>
<clipPath id="clip47">
  <path d="M -11.46875 180.050781 L 58.515625 67.355469 L 279.207031 204.398438 L 209.226562 317.09375 Z M -11.46875 180.050781 "/>
</clipPath>
<clipPath id="clip48">
  <path d="M 159 243 L 163 243 L 163 249 L 159 249 Z M 159 243 "/>
</clipPath>
<clipPath id="clip49">
  <path d="M -11.46875 180.050781 L 58.5625 67.273438 L 279.015625 204.171875 L 208.984375 316.945312 Z M -11.46875 180.050781 "/>
</clipPath>
<clipPath id="clip50">
  <path d="M -11.46875 180.050781 L 58.5625 67.273438 L 279.015625 204.171875 L 208.984375 316.945312 Z M -11.46875 180.050781 "/>
</clipPath>
<clipPath id="clip51">
  <path d="M -11.46875 180.050781 L 58.515625 67.355469 L 279.207031 204.398438 L 209.226562 317.09375 Z M -11.46875 180.050781 "/>
</clipPath>
<clipPath id="clip52">
  <path d="M 217 218 L 221 218 L 221 225 L 217 225 Z M 217 218 "/>
</clipPath>
<clipPath id="clip53">
  <path d="M -11.46875 180.050781 L 58.5625 67.273438 L 279.015625 204.171875 L 208.984375 316.945312 Z M -11.46875 180.050781 "/>
</clipPath>
<clipPath id="clip54">
  <path d="M -11.46875 180.050781 L 58.5625 67.273438 L 279.015625 204.171875 L 208.984375 316.945312 Z M -11.46875 180.050781 "/>
</clipPath>
<clipPath id="clip55">
  <path d="M -11.46875 180.050781 L 58.515625 67.355469 L 279.207031 204.398438 L 209.226562 317.09375 Z M -11.46875 180.050781 "/>
</clipPath>
<clipPath id="clip56">
  <path d="M 224 218 L 228 218 L 228 222 L 224 222 Z M 224 218 "/>
</clipPath>
<clipPath id="clip57">
  <path d="M -11.46875 180.050781 L 58.5625 67.273438 L 279.015625 204.171875 L 208.984375 316.945312 Z M -11.46875 180.050781 "/>
</clipPath>
<clipPath id="clip58">
  <path d="M -11.46875 180.050781 L 58.5625 67.273438 L 279.015625 204.171875 L 208.984375 316.945312 Z M -11.46875 180.050781 "/>
</clipPath>
<clipPath id="clip59">
  <path d="M -11.46875 180.050781 L 58.515625 67.355469 L 279.207031 204.398438 L 209.226562 317.09375 Z M -11.46875 180.050781 "/>
</clipPath>
<clipPath id="clip60">
  <path d="M 196 214 L 252 214 L 252 295 L 196 295 Z M 196 214 "/>
</clipPath>
<clipPath id="clip61">
  <path d="M -11.46875 180.050781 L 58.5625 67.273438 L 279.015625 204.171875 L 208.984375 316.945312 Z M -11.46875 180.050781 "/>
</clipPath>
<clipPath id="clip62">
  <path d="M -11.46875 180.050781 L 58.5625 67.273438 L 279.015625 204.171875 L 208.984375 316.945312 Z M -11.46875 180.050781 "/>
</clipPath>
<clipPath id="clip63">
  <path d="M -11.46875 180.050781 L 58.515625 67.355469 L 279.207031 204.398438 L 209.226562 317.09375 Z M -11.46875 180.050781 "/>
</clipPath>
</defs>
<g id="surface1">
<path style=" stroke:none;fill-rule:nonzero;fill:rgb(47.059631%,63.529968%,82.348633%);fill-opacity:1;" d="M 380.257812 283.871094 L 316.898438 234.886719 L 323.941406 255.886719 L 154.980469 255.886719 C 135.539062 255.886719 119.78125 240.226562 119.78125 220.902344 L 119.78125 38.984375 C 119.78125 19.660156 135.539062 4 154.980469 4 L 345.058594 4 C 364.503906 4 380.257812 19.65625 380.257812 38.984375 Z M 380.257812 283.871094 "/>
<g clip-path="url(#clip1)" clip-rule="nonzero">
<path style=" stroke:none;fill-rule:nonzero;fill:rgb(0%,0%,0%);fill-opacity:1;" d="M 380.257812 287.871094 C 379.386719 287.871094 378.519531 287.585938 377.808594 287.03125 L 324.894531 246.125 L 327.738281 254.617188 C 328.148438 255.835938 327.941406 257.179688 327.191406 258.21875 C 326.4375 259.269531 325.230469 259.882812 323.941406 259.882812 L 154.980469 259.882812 C 133.359375 259.882812 115.773438 242.394531 115.773438 220.902344 L 115.773438 38.984375 C 115.773438 17.488281 133.359375 0 154.980469 0 L 345.0625 0 C 366.679688 0 384.265625 17.488281 384.265625 38.984375 L 384.265625 283.871094 C 384.265625 285.398438 383.398438 286.789062 382.023438 287.460938 C 381.460938 287.738281 380.859375 287.871094 380.257812 287.871094 Z M 316.898438 230.886719 C 317.765625 230.886719 318.632812 231.167969 319.351562 231.726562 L 376.253906 275.714844 L 376.253906 38.984375 C 376.253906 21.898438 362.257812 7.996094 345.058594 7.996094 L 154.980469 7.996094 C 137.78125 7.996094 123.785156 21.898438 123.785156 38.984375 L 123.785156 220.902344 C 123.785156 237.984375 137.78125 251.886719 154.980469 251.886719 L 318.375 251.886719 L 313.101562 236.152344 C 312.539062 234.484375 313.140625 232.644531 314.582031 231.625 C 315.277344 231.136719 316.085938 230.886719 316.898438 230.886719 Z M 316.898438 230.886719 "/>
</g>
<path style=" stroke:none;fill-rule:nonzero;fill:rgb(100%,100%,100%);fill-opacity:1;" d="M 285.242188 193.914062 C 284.609375 193.914062 284.015625 193.617188 283.636719 193.109375 L 277.296875 184.640625 C 276.914062 184.128906 276.796875 183.46875 276.984375 182.859375 C 277.171875 182.25 277.644531 181.765625 278.246094 181.558594 C 285.203125 179.164062 291.609375 175.941406 297.414062 171.914062 C 284.308594 177.4375 268.632812 180.148438 250.019531 180.148438 C 231.40625 180.148438 215.738281 177.4375 202.625 171.914062 C 208.425781 175.941406 214.832031 179.164062 221.792969 181.558594 C 222.398438 181.765625 222.867188 182.25 223.054688 182.859375 C 223.242188 183.46875 223.125 184.128906 222.742188 184.640625 L 216.402344 193.109375 C 216.023438 193.617188 215.429688 193.914062 214.796875 193.914062 C 214.792969 193.914062 214.792969 193.914062 214.789062 193.914062 C 213.5 193.910156 182.976562 193.5 162.355469 169.957031 C 162.007812 169.554688 161.832031 169.039062 161.859375 168.519531 C 165.300781 112.214844 184.886719 83.449219 185.722656 82.253906 C 185.832031 82.089844 185.96875 81.949219 186.125 81.828125 C 186.835938 81.269531 203.734375 68.148438 226.324219 65.988281 C 226.386719 65.984375 226.453125 65.976562 226.515625 65.976562 C 227.273438 65.976562 227.976562 66.40625 228.316406 67.097656 L 230.175781 70.882812 C 230.449219 71.4375 230.449219 72.078125 230.183594 72.632812 C 229.917969 73.183594 229.410156 73.582031 228.8125 73.714844 C 220.585938 75.535156 213.949219 78.183594 208.34375 81.285156 C 219.625 77.015625 232.476562 74.160156 250.148438 74.160156 C 267.949219 74.160156 280.863281 77.109375 292.246094 81.488281 C 286.824219 78.488281 280.210938 75.882812 271.195312 73.710938 C 270.605469 73.570312 270.109375 73.167969 269.851562 72.621094 C 269.597656 72.070312 269.601562 71.4375 269.867188 70.886719 L 271.726562 67.101562 C 272.0625 66.414062 272.765625 65.984375 273.527344 65.984375 C 273.574219 65.984375 273.628906 65.984375 273.675781 65.988281 C 295.257812 67.59375 313.152344 81.238281 313.90625 81.820312 C 314.066406 81.941406 314.210938 82.089844 314.320312 82.257812 C 315.15625 83.453125 334.738281 112.21875 338.183594 168.523438 C 338.214844 169.046875 338.039062 169.5625 337.6875 169.960938 C 317.066406 193.507812 286.542969 193.914062 285.253906 193.917969 C 285.25 193.914062 285.246094 193.914062 285.242188 193.914062 Z M 285.242188 193.914062 "/>
<path style=" stroke:none;fill-rule:nonzero;fill:rgb(0%,0%,0%);fill-opacity:1;" d="M 273.523438 67.96875 C 294.753906 69.554688 312.675781 83.394531 312.675781 83.394531 C 312.675781 83.394531 332.730469 112.246094 336.179688 168.640625 C 315.914062 191.777344 285.242188 191.914062 285.242188 191.914062 L 278.902344 183.445312 C 289.722656 179.726562 302.058594 173.046875 312.675781 160.929688 C 299.992188 170.433594 280.902344 178.144531 250.019531 178.144531 C 219.140625 178.144531 200.046875 170.433594 187.363281 160.929688 C 197.980469 173.046875 210.320312 179.726562 221.136719 183.445312 L 214.796875 191.914062 C 214.796875 191.914062 184.125 191.777344 163.859375 168.640625 C 167.308594 112.246094 187.363281 83.394531 187.363281 83.394531 C 187.363281 83.394531 204.25 70.105469 226.515625 67.96875 L 228.375 71.757812 C 210.9375 75.609375 200.460938 83.046875 191.292969 91.242188 C 207.078125 83.1875 222.84375 76.148438 250.144531 76.148438 C 277.441406 76.148438 292.957031 83.1875 308.742188 91.242188 C 299.574219 83.050781 290.824219 76.371094 271.660156 71.757812 L 273.523438 67.96875 M 226.515625 63.972656 C 226.386719 63.972656 226.261719 63.980469 226.132812 63.992188 C 202.960938 66.214844 185.609375 79.683594 184.882812 80.257812 C 184.570312 80.5 184.296875 80.792969 184.074219 81.117188 C 183.230469 82.332031 163.335938 111.539062 159.863281 168.398438 C 159.796875 169.449219 160.148438 170.480469 160.84375 171.269531 C 182.054688 195.488281 213.453125 195.910156 214.777344 195.914062 C 214.78125 195.914062 214.789062 195.914062 214.796875 195.914062 C 216.0625 195.914062 217.25 195.316406 218.007812 194.304688 L 224.347656 185.835938 C 225.113281 184.8125 225.347656 183.484375 224.96875 182.265625 C 224.652344 181.242188 223.941406 180.394531 223.007812 179.902344 C 231.253906 181.398438 240.242188 182.136719 250.019531 182.136719 C 259.796875 182.136719 268.785156 181.398438 277.035156 179.902344 C 276.097656 180.394531 275.386719 181.242188 275.070312 182.265625 C 274.691406 183.484375 274.921875 184.8125 275.691406 185.835938 L 282.03125 194.304688 C 282.789062 195.316406 283.976562 195.914062 285.242188 195.914062 C 285.25 195.914062 285.253906 195.914062 285.261719 195.914062 C 286.585938 195.910156 317.984375 195.488281 339.195312 171.269531 C 339.890625 170.480469 340.242188 169.449219 340.179688 168.398438 C 336.703125 111.539062 316.8125 82.332031 315.964844 81.117188 C 315.734375 80.78125 315.449219 80.484375 315.125 80.230469 C 314.355469 79.636719 295.996094 65.636719 273.820312 63.984375 C 273.722656 63.976562 273.625 63.972656 273.523438 63.972656 C 272.003906 63.972656 270.601562 64.832031 269.925781 66.210938 L 268.066406 69.996094 C 267.5625 71.015625 267.523438 72.199219 267.945312 73.246094 C 262.550781 72.539062 256.671875 72.152344 250.144531 72.152344 C 243.511719 72.152344 237.546875 72.546875 232.085938 73.261719 C 232.515625 72.210938 232.480469 71.023438 231.972656 69.996094 L 230.113281 66.210938 C 229.4375 64.832031 228.035156 63.972656 226.515625 63.972656 Z M 226.515625 63.972656 "/>
<path style=" stroke:none;fill-rule:nonzero;fill:rgb(47.059631%,63.529968%,82.348633%);fill-opacity:1;" d="M 290.09375 135.9375 C 290.09375 136.527344 290.070312 137.117188 290.027344 137.703125 C 289.980469 138.289062 289.914062 138.871094 289.824219 139.449219 C 289.734375 140.027344 289.621094 140.597656 289.488281 141.160156 C 289.355469 141.726562 289.203125 142.28125 289.027344 142.824219 C 288.851562 143.367188 288.652344 143.902344 288.4375 144.421875 C 288.222656 144.941406 287.984375 145.445312 287.730469 145.933594 C 287.472656 146.425781 287.203125 146.898438 286.910156 147.351562 C 286.617188 147.808594 286.308594 148.246094 285.984375 148.660156 C 285.660156 149.078125 285.320312 149.472656 284.964844 149.847656 C 284.609375 150.222656 284.242188 150.570312 283.859375 150.898438 C 283.476562 151.226562 283.085938 151.527344 282.679688 151.804688 C 282.273438 152.085938 281.859375 152.335938 281.433594 152.5625 C 281.011719 152.785156 280.578125 152.984375 280.140625 153.15625 C 279.699219 153.328125 279.253906 153.46875 278.804688 153.585938 C 278.351562 153.699219 277.898438 153.785156 277.441406 153.84375 C 276.984375 153.902344 276.527344 153.929688 276.066406 153.929688 C 275.609375 153.929688 275.148438 153.902344 274.691406 153.84375 C 274.234375 153.785156 273.78125 153.699219 273.332031 153.585938 C 272.878906 153.46875 272.4375 153.328125 271.996094 153.15625 C 271.554688 152.984375 271.125 152.785156 270.699219 152.5625 C 270.277344 152.335938 269.859375 152.085938 269.457031 151.804688 C 269.050781 151.527344 268.65625 151.226562 268.273438 150.898438 C 267.894531 150.570312 267.523438 150.222656 267.167969 149.847656 C 266.816406 149.472656 266.476562 149.078125 266.148438 148.660156 C 265.824219 148.246094 265.515625 147.808594 265.226562 147.351562 C 264.933594 146.898438 264.660156 146.425781 264.40625 145.933594 C 264.152344 145.445312 263.914062 144.941406 263.699219 144.421875 C 263.480469 143.902344 263.285156 143.367188 263.109375 142.824219 C 262.933594 142.28125 262.777344 141.726562 262.644531 141.160156 C 262.511719 140.597656 262.402344 140.027344 262.3125 139.449219 C 262.222656 138.871094 262.15625 138.289062 262.109375 137.703125 C 262.0625 137.117188 262.042969 136.527344 262.042969 135.9375 C 262.042969 135.351562 262.0625 134.761719 262.109375 134.175781 C 262.15625 133.589844 262.222656 133.007812 262.3125 132.429688 C 262.402344 131.851562 262.511719 131.28125 262.644531 130.714844 C 262.777344 130.152344 262.933594 129.597656 263.109375 129.054688 C 263.285156 128.507812 263.480469 127.976562 263.699219 127.457031 C 263.914062 126.9375 264.152344 126.433594 264.40625 125.941406 C 264.660156 125.453125 264.933594 124.980469 265.226562 124.523438 C 265.515625 124.070312 265.824219 123.632812 266.148438 123.21875 C 266.476562 122.800781 266.816406 122.40625 267.167969 122.03125 C 267.523438 121.65625 267.894531 121.308594 268.273438 120.980469 C 268.65625 120.652344 269.050781 120.347656 269.457031 120.070312 C 269.859375 119.792969 270.277344 119.542969 270.699219 119.316406 C 271.125 119.089844 271.554688 118.894531 271.996094 118.722656 C 272.4375 118.550781 272.882812 118.40625 273.332031 118.292969 C 273.78125 118.179688 274.234375 118.089844 274.691406 118.035156 C 275.148438 117.976562 275.609375 117.945312 276.066406 117.945312 C 276.527344 117.945312 276.984375 117.976562 277.441406 118.035156 C 277.898438 118.089844 278.351562 118.179688 278.804688 118.292969 C 279.253906 118.40625 279.699219 118.550781 280.140625 118.722656 C 280.578125 118.894531 281.011719 119.089844 281.433594 119.316406 C 281.859375 119.542969 282.273438 119.792969 282.679688 120.070312 C 283.085938 120.347656 283.476562 120.652344 283.859375 120.980469 C 284.242188 121.308594 284.609375 121.65625 284.964844 122.03125 C 285.320312 122.40625 285.660156 122.800781 285.984375 123.21875 C 286.308594 123.632812 286.617188 124.070312 286.910156 124.523438 C 287.203125 124.980469 287.472656 125.453125 287.730469 125.941406 C 287.984375 126.433594 288.222656 126.9375 288.4375 127.457031 C 288.652344 127.976562 288.851562 128.507812 289.027344 129.054688 C 289.203125 129.597656 289.355469 130.152344 289.488281 130.714844 C 289.621094 131.28125 289.734375 131.851562 289.824219 132.429688 C 289.914062 133.007812 289.980469 133.589844 290.027344 134.175781 C 290.070312 134.761719 290.09375 135.351562 290.09375 135.9375 Z M 290.09375 135.9375 "/>
<path style=" stroke:none;fill-rule:nonzero;fill:rgb(0%,0%,0%);fill-opacity:1;" d="M 276.066406 119.945312 C 282.679688 119.945312 288.089844 127.109375 288.089844 135.9375 C 288.089844 144.765625 282.679688 151.933594 276.066406 151.933594 C 269.457031 151.933594 264.046875 144.765625 264.046875 135.9375 C 264.046875 127.109375 269.457031 119.945312 276.066406 119.945312 M 276.066406 115.949219 C 267.226562 115.949219 260.039062 124.917969 260.039062 135.9375 C 260.039062 146.960938 267.226562 155.929688 276.066406 155.929688 C 284.90625 155.929688 292.097656 146.960938 292.097656 135.9375 C 292.097656 124.917969 284.90625 115.949219 276.066406 115.949219 Z M 276.066406 115.949219 "/>
<path style=" stroke:none;fill-rule:nonzero;fill:rgb(47.059631%,63.529968%,82.348633%);fill-opacity:1;" d="M 237.996094 135.9375 C 237.996094 136.527344 237.976562 137.117188 237.929688 137.703125 C 237.886719 138.289062 237.816406 138.871094 237.726562 139.449219 C 237.636719 140.027344 237.527344 140.597656 237.394531 141.160156 C 237.261719 141.726562 237.105469 142.28125 236.929688 142.824219 C 236.753906 143.367188 236.558594 143.902344 236.339844 144.421875 C 236.125 144.941406 235.890625 145.445312 235.632812 145.933594 C 235.378906 146.425781 235.105469 146.898438 234.8125 147.351562 C 234.523438 147.808594 234.214844 148.246094 233.890625 148.660156 C 233.566406 149.078125 233.226562 149.472656 232.871094 149.847656 C 232.515625 150.222656 232.144531 150.570312 231.765625 150.898438 C 231.382812 151.226562 230.988281 151.527344 230.582031 151.804688 C 230.179688 152.085938 229.761719 152.335938 229.339844 152.5625 C 228.914062 152.785156 228.484375 152.984375 228.042969 153.15625 C 227.605469 153.328125 227.160156 153.46875 226.707031 153.585938 C 226.257812 153.699219 225.804688 153.785156 225.347656 153.84375 C 224.890625 153.902344 224.429688 153.929688 223.972656 153.929688 C 223.511719 153.929688 223.054688 153.902344 222.597656 153.84375 C 222.140625 153.785156 221.6875 153.699219 221.234375 153.585938 C 220.785156 153.46875 220.339844 153.328125 219.898438 153.15625 C 219.460938 152.984375 219.027344 152.785156 218.605469 152.5625 C 218.179688 152.335938 217.765625 152.085938 217.359375 151.804688 C 216.953125 151.527344 216.5625 151.226562 216.179688 150.898438 C 215.796875 150.570312 215.429688 150.222656 215.074219 149.847656 C 214.71875 149.472656 214.378906 149.078125 214.054688 148.660156 C 213.730469 148.246094 213.421875 147.808594 213.128906 147.351562 C 212.839844 146.898438 212.566406 146.425781 212.308594 145.933594 C 212.054688 145.445312 211.820312 144.941406 211.601562 144.421875 C 211.386719 143.902344 211.1875 143.367188 211.011719 142.824219 C 210.835938 142.28125 210.683594 141.726562 210.550781 141.160156 C 210.417969 140.597656 210.304688 140.027344 210.214844 139.449219 C 210.125 138.871094 210.058594 138.289062 210.011719 137.703125 C 209.96875 137.117188 209.945312 136.527344 209.945312 135.9375 C 209.945312 135.351562 209.96875 134.761719 210.011719 134.175781 C 210.058594 133.589844 210.125 133.007812 210.214844 132.429688 C 210.304688 131.851562 210.417969 131.28125 210.550781 130.714844 C 210.683594 130.152344 210.835938 129.597656 211.011719 129.054688 C 211.1875 128.507812 211.386719 127.976562 211.601562 127.457031 C 211.820312 126.9375 212.054688 126.433594 212.308594 125.941406 C 212.566406 125.453125 212.839844 124.980469 213.128906 124.523438 C 213.421875 124.070312 213.730469 123.632812 214.054688 123.21875 C 214.378906 122.800781 214.71875 122.40625 215.074219 122.03125 C 215.429688 121.65625 215.796875 121.308594 216.179688 120.980469 C 216.5625 120.652344 216.953125 120.347656 217.359375 120.070312 C 217.765625 119.792969 218.179688 119.542969 218.605469 119.316406 C 219.027344 119.089844 219.460938 118.894531 219.898438 118.722656 C 220.339844 118.550781 220.785156 118.40625 221.234375 118.292969 C 221.6875 118.179688 222.140625 118.089844 222.597656 118.035156 C 223.054688 117.976562 223.511719 117.945312 223.972656 117.945312 C 224.429688 117.945312 224.890625 117.976562 225.347656 118.035156 C 225.804688 118.089844 226.257812 118.179688 226.707031 118.292969 C 227.160156 118.40625 227.605469 118.550781 228.042969 118.722656 C 228.484375 118.894531 228.914062 119.089844 229.339844 119.316406 C 229.761719 119.542969 230.179688 119.792969 230.582031 120.070312 C 230.988281 120.347656 231.382812 120.652344 231.765625 120.980469 C 232.144531 121.308594 232.515625 121.65625 232.871094 122.03125 C 233.226562 122.40625 233.566406 122.800781 233.890625 123.21875 C 234.214844 123.632812 234.523438 124.070312 234.8125 124.523438 C 235.105469 124.980469 235.378906 125.453125 235.632812 125.941406 C 235.890625 126.433594 236.125 126.9375 236.339844 127.457031 C 236.558594 127.976562 236.753906 128.507812 236.929688 129.054688 C 237.105469 129.597656 237.261719 130.152344 237.394531 130.714844 C 237.527344 131.28125 237.636719 131.851562 237.726562 132.429688 C 237.816406 133.007812 237.886719 133.589844 237.929688 134.175781 C 237.976562 134.761719 237.996094 135.351562 237.996094 135.9375 Z M 237.996094 135.9375 "/>
<path style=" stroke:none;fill-rule:nonzero;fill:rgb(0%,0%,0%);fill-opacity:1;" d="M 223.972656 119.945312 C 230.582031 119.945312 235.992188 127.109375 235.992188 135.9375 C 235.992188 144.765625 230.582031 151.933594 223.972656 151.933594 C 217.359375 151.933594 211.949219 144.765625 211.949219 135.9375 C 211.949219 127.109375 217.359375 119.945312 223.972656 119.945312 M 223.972656 115.949219 C 215.132812 115.949219 207.941406 124.917969 207.941406 135.9375 C 207.941406 146.960938 215.132812 155.929688 223.972656 155.929688 C 232.8125 155.929688 240 146.960938 240 135.9375 C 240 124.917969 232.8125 115.949219 223.972656 115.949219 Z M 223.972656 115.949219 "/>
<path style=" stroke:none;fill-rule:nonzero;fill:rgb(0%,0%,0%);fill-opacity:1;" d="M 362.226562 113.167969 C 361.121094 113.167969 360.222656 112.273438 360.222656 111.171875 L 360.222656 89.21875 C 360.222656 88.117188 361.121094 87.222656 362.226562 87.222656 C 363.332031 87.222656 364.230469 88.117188 364.230469 89.21875 L 364.230469 111.171875 C 364.230469 112.273438 363.332031 113.167969 362.226562 113.167969 Z M 362.226562 113.167969 "/>
<path style=" stroke:none;fill-rule:nonzero;fill:rgb(0%,0%,0%);fill-opacity:1;" d="M 362.226562 78.972656 C 361.121094 78.972656 360.222656 78.078125 360.222656 76.972656 L 360.222656 59.109375 C 360.222656 58.007812 361.121094 57.109375 362.226562 57.109375 C 363.332031 57.109375 364.230469 58.007812 364.230469 59.109375 L 364.230469 76.972656 C 364.230469 78.078125 363.332031 78.972656 362.226562 78.972656 Z M 362.226562 78.972656 "/>
<path style=" stroke:none;fill-rule:nonzero;fill:rgb(0%,0%,0%);fill-opacity:1;" d="M 158.484375 239.894531 C 145.980469 239.894531 135.808594 229.746094 135.808594 217.269531 L 135.808594 42.613281 C 135.808594 30.136719 145.980469 19.992188 158.484375 19.992188 L 341.558594 19.992188 C 342.667969 19.992188 343.5625 20.886719 343.5625 21.988281 C 343.5625 23.09375 342.667969 23.988281 341.558594 23.988281 L 158.484375 23.988281 C 148.1875 23.988281 139.816406 32.339844 139.816406 42.613281 L 139.816406 217.269531 C 139.816406 227.539062 148.1875 235.894531 158.484375 235.894531 C 159.589844 235.894531 160.488281 236.789062 160.488281 237.894531 C 160.488281 238.996094 159.589844 239.894531 158.484375 239.894531 Z M 158.484375 239.894531 "/>
<path style=" stroke:none;fill-rule:nonzero;fill:rgb(0%,0%,0%);fill-opacity:1;" d="M 200.183594 239.894531 L 171.40625 239.894531 C 170.300781 239.894531 169.402344 238.996094 169.402344 237.894531 C 169.402344 236.789062 170.300781 235.894531 171.40625 235.894531 L 200.183594 235.894531 C 201.289062 235.894531 202.1875 236.789062 202.1875 237.894531 C 202.1875 238.996094 201.289062 239.894531 200.183594 239.894531 Z M 200.183594 239.894531 "/>
<path style=" stroke:none;fill-rule:nonzero;fill:rgb(0%,0%,0%);fill-opacity:1;" d="M 295.59375 239.894531 L 217.453125 239.894531 C 216.34375 239.894531 215.449219 238.996094 215.449219 237.894531 C 215.449219 236.789062 216.34375 235.894531 217.453125 235.894531 L 295.59375 235.894531 C 296.703125 235.894531 297.597656 236.789062 297.597656 237.894531 C 297.597656 238.996094 296.703125 239.894531 295.59375 239.894531 Z M 295.59375 239.894531 "/>
<path style=" stroke:none;fill-rule:nonzero;fill:rgb(0%,0%,0%);fill-opacity:1;" d="M 354.609375 235.261719 C 354.023438 235.261719 353.449219 235.011719 353.054688 234.523438 C 352.355469 233.667969 352.484375 232.410156 353.34375 231.710938 C 357.714844 228.160156 360.222656 222.890625 360.222656 217.269531 L 360.222656 127.503906 C 360.222656 126.398438 361.121094 125.503906 362.226562 125.503906 C 363.332031 125.503906 364.230469 126.398438 364.230469 127.503906 L 364.230469 217.269531 C 364.230469 224.101562 361.183594 230.496094 355.875 234.816406 C 355.503906 235.113281 355.054688 235.261719 354.609375 235.261719 Z M 354.609375 235.261719 "/>
<g clip-path="url(#clip2)" clip-rule="nonzero">
<g clip-path="url(#clip3)" clip-rule="nonzero">
<g clip-path="url(#clip4)" clip-rule="nonzero">
<g clip-path="url(#clip5)" clip-rule="nonzero">
<g clip-path="url(#clip6)" clip-rule="nonzero">
<g clip-path="url(#clip7)" clip-rule="nonzero">
<path style=" stroke:none;fill-rule:evenodd;fill:rgb(0%,0%,0%);fill-opacity:1;" d="M 218.648438 282.96875 C 233.917969 267.496094 244.09375 251.964844 250.128906 235.632812 C 252.078125 230.34375 253.152344 216.621094 246.707031 214.324219 C 244.691406 213.605469 242.253906 215.726562 240.253906 215.5 C 244.734375 240.75 218.429688 278.820312 196.390625 287.808594 C 201.707031 301.183594 211.703125 290.007812 218.648438 282.96875 Z M 167.621094 270.460938 C 174.148438 275.347656 182.082031 282.253906 187.574219 284.410156 C 198.976562 288.878906 215.871094 272.503906 224.582031 259.171875 C 234.492188 244 240.550781 228.007812 237.535156 214.847656 C 229.53125 203.265625 211.472656 193 195.1875 187.515625 C 179.039062 182.074219 165.160156 184.511719 157.753906 200.042969 C 166.074219 208.222656 152.363281 219.867188 147.15625 227.164062 C 145.867188 228.039062 143.984375 226.40625 142.46875 226.328125 C 136.207031 244.292969 151.050781 258.0625 167.621094 270.460938 Z M 141.503906 219.507812 C 142.734375 221.152344 143.066406 223.957031 145.832031 224.269531 C 149.527344 220.191406 154.65625 213.417969 157.96875 206.402344 C 151.09375 195.316406 144.996094 212.902344 141.503906 219.507812 Z M 129.410156 184.515625 C 130.160156 176.09375 136.730469 169.558594 139.132812 160.484375 C 139.980469 157.273438 140.226562 152.265625 139.96875 149.078125 C 137.902344 123.371094 113.488281 102.265625 87.640625 98.4375 C 61.320312 94.539062 31.890625 110.222656 20.015625 141.992188 C 18.058594 157.144531 17.578125 178.53125 26.511719 192.691406 C 30.054688 198.296875 35.605469 204.71875 42.214844 207.621094 C 48.726562 210.484375 55.160156 208.640625 62.457031 211.898438 C 60.101562 206.046875 55.0625 206.804688 50.816406 204.667969 C 49.25 203.882812 47.335938 202.363281 46.164062 201.261719 C 31.054688 187.0625 26.265625 159.945312 38.445312 139.957031 C 46.632812 126.523438 64.359375 114.804688 76.097656 112.007812 C 89.105469 108.90625 102.613281 113.738281 117.203125 124.570312 C 133.488281 136.664062 136.300781 154.746094 130.945312 171.992188 C 128.023438 181.402344 118.125 193.796875 123.871094 201.816406 C 126.019531 204.816406 129.875 205.988281 131.902344 207.320312 C 134.328125 208.914062 136.984375 211.226562 141.054688 213.523438 C 142.246094 211.5625 144.089844 208.332031 144.953125 205.574219 C 135.066406 200.789062 128.648438 193.046875 129.410156 184.515625 Z M 239.195312 209.660156 C 243.878906 208.253906 250.777344 208.269531 254.894531 213.707031 C 257.960938 217.753906 255.582031 231.785156 254.578125 236.839844 C 254.175781 238.878906 253.191406 241.367188 252.363281 243.761719 C 247.523438 257.707031 234.953125 276.273438 224.890625 286.324219 C 218.089844 290.109375 212.125 297.441406 205.011719 299.902344 C 199.695312 299.710938 193.761719 295.148438 192.566406 290.621094 C 181.535156 288.253906 171.304688 279.875 160.039062 270.9375 C 145.242188 259.203125 130.703125 244.203125 138.394531 225.351562 C 137.886719 222.804688 136.421875 220.472656 136.90625 217.691406 C 123.542969 209.964844 113.882812 202.320312 118.289062 189.019531 C 120.457031 182.476562 124.429688 177.171875 126.261719 171.15625 C 129.21875 161.445312 129.046875 150.054688 124.769531 141.714844 C 118.242188 131.597656 104.734375 120.296875 91.1875 116.191406 C 77.417969 112.023438 57.679688 125.039062 47.132812 136.019531 C 39.558594 143.910156 35.542969 159.34375 36.089844 168.046875 C 36.574219 175.707031 40.800781 190.183594 48.578125 196.539062 C 52.761719 199.957031 59.917969 201.851562 63.972656 206.101562 C 66.246094 208.480469 66.195312 210.988281 68.5 213.058594 C 67.808594 216.246094 71.007812 220.113281 67.609375 222.875 C 63.042969 221.125 64.683594 218.992188 61.402344 216.945312 C 56.605469 213.953125 47.523438 214.734375 41.769531 212.53125 C 37.390625 210.855469 32.34375 207.1875 28.714844 203.386719 C 12.5625 186.464844 8.480469 152.207031 20.242188 130.726562 C 23.734375 124.351562 28.96875 115.003906 35.3125 108.976562 C 36.589844 107.761719 39.164062 106.894531 40.960938 105.742188 C 42.867188 104.519531 44.417969 102.71875 46.089844 101.667969 C 64.976562 89.828125 92.953125 89.140625 115.980469 103.074219 C 129.714844 111.382812 139.796875 126.34375 142.773438 137.859375 C 145.578125 148.695312 143.707031 159.300781 138.898438 171.746094 C 137.375 175.703125 134.605469 179.820312 133.808594 184.140625 C 132.71875 190.046875 136.523438 195.144531 144.503906 199.59375 C 153.359375 199.851562 155.007812 193.222656 160.878906 187.46875 C 176.039062 172.59375 200.144531 181.796875 223.03125 195.472656 C 229.292969 199.214844 235.386719 204.578125 239.195312 209.660156 "/>
</g>
</g>
</g>
</g>
</g>
</g>
<g clip-path="url(#clip8)" clip-rule="nonzero">
<g clip-path="url(#clip9)" clip-rule="nonzero">
<g clip-path="url(#clip10)" clip-rule="nonzero">
<g clip-path="url(#clip11)" clip-rule="nonzero">
<path style=" stroke:none;fill-rule:evenodd;fill:rgb(89.7995%,89.7995%,87.449646%);fill-opacity:1;" d="M 130.289062 203.210938 C 130.738281 205.648438 134.277344 204.75 135.671875 202.921875 C 134.523438 200.886719 131.492188 201.097656 130.289062 203.210938 Z M 128.734375 200.691406 C 129.597656 200.726562 130.289062 200.023438 131.023438 199.519531 C 130.589844 199.191406 130.203125 198.855469 130.734375 198.304688 C 128.894531 196.949219 126.5625 199.328125 128.734375 200.691406 Z M 49.082031 121.15625 C 50.808594 121.503906 52.554688 117.445312 50.886719 116.574219 C 49.847656 116.371094 47.4375 120.082031 49.082031 121.15625 Z M 29.027344 158.476562 C 28.582031 156.050781 24.835938 156.082031 23.214844 156.941406 C 23.972656 159.226562 27.042969 160.554688 29.027344 158.476562 Z M 23.71875 153.621094 C 25.375 153.851562 26.882812 153.46875 28.203125 152.261719 C 26.164062 150.234375 21.777344 151.175781 23.71875 153.621094 Z M 43.199219 124.761719 C 44.871094 123.640625 45.257812 121.15625 44.253906 119.710938 C 41.859375 119.082031 40.347656 123.742188 43.199219 124.761719 Z M 144.953125 205.574219 C 144.089844 208.332031 142.246094 211.5625 141.054688 213.523438 C 136.984375 211.226562 134.328125 208.914062 131.902344 207.320312 C 129.875 205.988281 126.019531 204.816406 123.871094 201.816406 C 118.125 193.796875 128.023438 181.402344 130.945312 171.992188 C 136.300781 154.746094 133.488281 136.664062 117.203125 124.570312 C 102.613281 113.738281 89.105469 108.90625 76.097656 112.007812 C 64.359375 114.804688 46.632812 126.523438 38.445312 139.957031 C 26.265625 159.945312 31.054688 187.0625 46.164062 201.261719 C 47.335938 202.363281 49.25 203.882812 50.816406 204.667969 C 55.0625 206.804688 60.101562 206.046875 62.457031 211.898438 C 55.160156 208.640625 48.726562 210.484375 42.214844 207.621094 C 35.605469 204.71875 30.054688 198.296875 26.511719 192.691406 C 17.578125 178.53125 18.058594 157.144531 20.015625 141.992188 C 31.890625 110.222656 61.320312 94.539062 87.640625 98.4375 C 113.488281 102.265625 137.902344 123.371094 139.96875 149.078125 C 140.226562 152.265625 139.980469 157.273438 139.132812 160.484375 C 136.730469 169.558594 130.160156 176.09375 129.410156 184.515625 C 128.648438 193.046875 135.066406 200.789062 144.953125 205.574219 "/>
</g>
</g>
</g>
</g>
<g clip-path="url(#clip12)" clip-rule="nonzero">
<g clip-path="url(#clip13)" clip-rule="nonzero">
<g clip-path="url(#clip14)" clip-rule="nonzero">
<g clip-path="url(#clip15)" clip-rule="nonzero">
<path style=" stroke:none;fill-rule:evenodd;fill:rgb(0%,0%,0%);fill-opacity:1;" d="M 44.253906 119.710938 C 45.261719 121.15625 44.871094 123.640625 43.199219 124.761719 C 40.347656 123.742188 41.859375 119.082031 44.253906 119.710938 "/>
</g>
</g>
</g>
</g>
<g clip-path="url(#clip16)" clip-rule="nonzero">
<g clip-path="url(#clip17)" clip-rule="nonzero">
<g clip-path="url(#clip18)" clip-rule="nonzero">
<g clip-path="url(#clip19)" clip-rule="nonzero">
<path style=" stroke:none;fill-rule:evenodd;fill:rgb(0%,0%,0%);fill-opacity:1;" d="M 28.203125 152.261719 C 26.886719 153.46875 25.375 153.851562 23.71875 153.621094 C 21.78125 151.175781 26.167969 150.234375 28.203125 152.261719 "/>
</g>
</g>
</g>
</g>
<g clip-path="url(#clip20)" clip-rule="nonzero">
<g clip-path="url(#clip21)" clip-rule="nonzero">
<g clip-path="url(#clip22)" clip-rule="nonzero">
<g clip-path="url(#clip23)" clip-rule="nonzero">
<path style=" stroke:none;fill-rule:evenodd;fill:rgb(0%,0%,0%);fill-opacity:1;" d="M 23.214844 156.941406 C 24.835938 156.082031 28.582031 156.046875 29.027344 158.476562 C 27.042969 160.554688 23.972656 159.226562 23.214844 156.941406 "/>
</g>
</g>
</g>
</g>
<g clip-path="url(#clip24)" clip-rule="nonzero">
<g clip-path="url(#clip25)" clip-rule="nonzero">
<g clip-path="url(#clip26)" clip-rule="nonzero">
<g clip-path="url(#clip27)" clip-rule="nonzero">
<path style=" stroke:none;fill-rule:evenodd;fill:rgb(0%,0%,0%);fill-opacity:1;" d="M 50.886719 116.574219 C 52.558594 117.445312 50.808594 121.503906 49.082031 121.15625 C 47.4375 120.082031 49.847656 116.371094 50.886719 116.574219 "/>
</g>
</g>
</g>
</g>
<g clip-path="url(#clip28)" clip-rule="nonzero">
<g clip-path="url(#clip29)" clip-rule="nonzero">
<g clip-path="url(#clip30)" clip-rule="nonzero">
<g clip-path="url(#clip31)" clip-rule="nonzero">
<path style=" stroke:none;fill-rule:evenodd;fill:rgb(0%,0%,0%);fill-opacity:1;" d="M 130.734375 198.304688 C 130.203125 198.855469 130.589844 199.191406 131.023438 199.519531 C 130.289062 200.023438 129.597656 200.730469 128.734375 200.691406 C 126.5625 199.328125 128.894531 196.953125 130.734375 198.304688 "/>
</g>
</g>
</g>
</g>
<g clip-path="url(#clip32)" clip-rule="nonzero">
<g clip-path="url(#clip33)" clip-rule="nonzero">
<g clip-path="url(#clip34)" clip-rule="nonzero">
<g clip-path="url(#clip35)" clip-rule="nonzero">
<path style=" stroke:none;fill-rule:evenodd;fill:rgb(0%,0%,0%);fill-opacity:1;" d="M 135.671875 202.921875 C 134.277344 204.75 130.738281 205.648438 130.289062 203.210938 C 131.492188 201.097656 134.523438 200.886719 135.671875 202.921875 "/>
</g>
</g>
</g>
</g>
<g clip-path="url(#clip36)" clip-rule="nonzero">
<g clip-path="url(#clip37)" clip-rule="nonzero">
<g clip-path="url(#clip38)" clip-rule="nonzero">
<g clip-path="url(#clip39)" clip-rule="nonzero">
<path style=" stroke:none;fill-rule:evenodd;fill:rgb(62.348938%,67.83905%,67.449951%);fill-opacity:1;" d="M 157.96875 206.402344 C 154.65625 213.417969 149.527344 220.191406 145.832031 224.269531 C 143.066406 223.957031 142.734375 221.152344 141.503906 219.507812 C 144.996094 212.902344 151.09375 195.316406 157.96875 206.402344 "/>
</g>
</g>
</g>
</g>
<g clip-path="url(#clip40)" clip-rule="nonzero">
<g clip-path="url(#clip41)" clip-rule="nonzero">
<g clip-path="url(#clip42)" clip-rule="nonzero">
<g clip-path="url(#clip43)" clip-rule="nonzero">
<path style=" stroke:none;fill-rule:evenodd;fill:rgb(48.239136%,48.629761%,43.139648%);fill-opacity:1;" d="M 224.644531 221.363281 C 227.242188 223.410156 228.59375 219.234375 226.128906 218.136719 C 224.761719 218.488281 224.882812 220.308594 224.644531 221.363281 Z M 220.210938 224.3125 C 221.273438 221.542969 220.113281 220.554688 218.921875 218.847656 C 216.320312 219.15625 217.53125 224.285156 220.210938 224.3125 Z M 161.714844 248.128906 C 161.980469 247.894531 162.179688 247.398438 162.554688 247.617188 C 162.445312 245.933594 162.085938 244.308594 160.191406 243.039062 C 159.875 243.503906 159.390625 243.257812 159.117188 243.925781 C 159.621094 245.410156 159.570312 247.023438 161.714844 248.128906 Z M 153.097656 246.925781 C 155.058594 246.496094 153.996094 250.8125 156.761719 250.238281 C 157.992188 247.390625 155.9375 245.308594 153.828125 243.230469 C 152.457031 244.726562 153.191406 245.730469 153.097656 246.925781 Z M 142.472656 226.328125 C 143.984375 226.40625 145.867188 228.039062 147.15625 227.164062 C 152.363281 219.867188 166.074219 208.222656 157.753906 200.042969 C 165.160156 184.511719 179.039062 182.074219 195.1875 187.515625 C 211.472656 193.003906 229.53125 203.265625 237.535156 214.847656 C 240.550781 228.007812 234.492188 244 224.582031 259.171875 C 215.871094 272.503906 198.976562 288.878906 187.574219 284.410156 C 182.082031 282.253906 174.148438 275.347656 167.621094 270.460938 C 151.050781 258.0625 136.207031 244.292969 142.472656 226.328125 "/>
</g>
</g>
</g>
</g>
<g clip-path="url(#clip44)" clip-rule="nonzero">
<g clip-path="url(#clip45)" clip-rule="nonzero">
<g clip-path="url(#clip46)" clip-rule="nonzero">
<g clip-path="url(#clip47)" clip-rule="nonzero">
<path style=" stroke:none;fill-rule:evenodd;fill:rgb(0%,0%,0%);fill-opacity:1;" d="M 153.828125 243.230469 C 155.9375 245.308594 157.992188 247.390625 156.761719 250.238281 C 153.996094 250.8125 155.058594 246.496094 153.097656 246.925781 C 153.191406 245.730469 152.457031 244.726562 153.828125 243.230469 "/>
</g>
</g>
</g>
</g>
<g clip-path="url(#clip48)" clip-rule="nonzero">
<g clip-path="url(#clip49)" clip-rule="nonzero">
<g clip-path="url(#clip50)" clip-rule="nonzero">
<g clip-path="url(#clip51)" clip-rule="nonzero">
<path style=" stroke:none;fill-rule:evenodd;fill:rgb(0%,0%,0%);fill-opacity:1;" d="M 159.117188 243.925781 C 159.390625 243.257812 159.875 243.503906 160.191406 243.039062 C 162.085938 244.308594 162.445312 245.933594 162.554688 247.617188 C 162.179688 247.398438 161.980469 247.894531 161.714844 248.128906 C 159.570312 247.023438 159.621094 245.410156 159.117188 243.925781 "/>
</g>
</g>
</g>
</g>
<g clip-path="url(#clip52)" clip-rule="nonzero">
<g clip-path="url(#clip53)" clip-rule="nonzero">
<g clip-path="url(#clip54)" clip-rule="nonzero">
<g clip-path="url(#clip55)" clip-rule="nonzero">
<path style=" stroke:none;fill-rule:evenodd;fill:rgb(0%,0%,0%);fill-opacity:1;" d="M 218.921875 218.847656 C 220.113281 220.554688 221.273438 221.542969 220.210938 224.3125 C 217.53125 224.285156 216.320312 219.15625 218.921875 218.847656 "/>
</g>
</g>
</g>
</g>
<g clip-path="url(#clip56)" clip-rule="nonzero">
<g clip-path="url(#clip57)" clip-rule="nonzero">
<g clip-path="url(#clip58)" clip-rule="nonzero">
<g clip-path="url(#clip59)" clip-rule="nonzero">
<path style=" stroke:none;fill-rule:evenodd;fill:rgb(0%,0%,0%);fill-opacity:1;" d="M 226.128906 218.136719 C 228.59375 219.234375 227.242188 223.410156 224.644531 221.363281 C 224.882812 220.308594 224.761719 218.488281 226.128906 218.136719 "/>
</g>
</g>
</g>
</g>
<g clip-path="url(#clip60)" clip-rule="nonzero">
<g clip-path="url(#clip61)" clip-rule="nonzero">
<g clip-path="url(#clip62)" clip-rule="nonzero">
<g clip-path="url(#clip63)" clip-rule="nonzero">
<path style=" stroke:none;fill-rule:evenodd;fill:rgb(62.348938%,67.83905%,67.449951%);fill-opacity:1;" d="M 196.390625 287.808594 C 218.429688 278.820312 244.734375 240.75 240.253906 215.5 C 242.253906 215.726562 244.691406 213.605469 246.707031 214.324219 C 253.152344 216.621094 252.078125 230.34375 250.128906 235.632812 C 244.09375 251.964844 233.917969 267.496094 218.648438 282.96875 C 211.703125 290.007812 201.707031 301.183594 196.390625 287.808594 "/>
</g>
</g>
</g>
</g>
</g>
</svg>
